<svg xmlns="http://www.w3.org/2000/svg" width="18" height="18" viewBox="0 0 18 18">
  <defs>
    <style>
      .cls-1 {
        fill: #767676;
      }
    </style>
  </defs>
  <g id="gear" transform="translate(0 0)">
    <path id="패스_607" data-name="패스 607" class="cls-1" d="M16.694,6.7l-.878-.149c-.078-.218-.166-.431-.264-.638l.517-.723a1.566,1.566,0,0,0-.17-2.027L14.844,2.108a1.568,1.568,0,0,0-2.024-.17l-.726.517a7.234,7.234,0,0,0-.682-.281l-.145-.86A1.57,1.57,0,0,0,9.713,0H8.223A1.57,1.57,0,0,0,6.67,1.313l-.153.894q-.323.118-.636.268l-.713-.513a1.573,1.573,0,0,0-2.031.169L2.08,3.184a1.571,1.571,0,0,0-.17,2.027l.525.738c-.1.208-.184.423-.261.641l-.86.145A1.571,1.571,0,0,0,0,8.29V9.78a1.57,1.57,0,0,0,1.313,1.553l.894.152c.079.216.168.428.268.636l-.511.711a1.566,1.566,0,0,0,.17,2.027l1.055,1.055a1.568,1.568,0,0,0,2.024.17l.738-.525c.194.09.395.173.6.247l.146.878A1.571,1.571,0,0,0,8.251,18H9.745A1.57,1.57,0,0,0,11.3,16.686l.149-.878c.218-.078.431-.166.638-.264l.721.515a1.573,1.573,0,0,0,2.03-.168l1.055-1.055a1.571,1.571,0,0,0,.17-2.027l-.517-.727c.1-.212.189-.426.265-.638l.877-.146A1.571,1.571,0,0,0,18,9.745V8.258A1.555,1.555,0,0,0,16.694,6.7Zm.252,3.044a.519.519,0,0,1-.434.513l-1.163.194a.568.568,0,0,0-.452.4,6.166,6.166,0,0,1-.421,1.016.568.568,0,0,0,.041.6l.685.962a.519.519,0,0,1-.057.67l-1.055,1.055a.518.518,0,0,1-.669.057l-.958-.685a.568.568,0,0,0-.6-.042,6.21,6.21,0,0,1-1.018.421.568.568,0,0,0-.392.449l-.2,1.164a.519.519,0,0,1-.514.434H8.251a.519.519,0,0,1-.513-.434l-.194-1.163a.569.569,0,0,0-.391-.451,6.173,6.173,0,0,1-.985-.4.569.569,0,0,0-.594.042l-.975.694a.5.5,0,0,1-.3.1.509.509,0,0,1-.367-.154L2.877,14.114a.515.515,0,0,1-.056-.666L3.5,12.5a.568.568,0,0,0,.041-.6,6.031,6.031,0,0,1-.427-1.012.57.57,0,0,0-.448-.39l-1.179-.2a.519.519,0,0,1-.434-.514V8.29a.519.519,0,0,1,.435-.514l1.148-.194a.568.568,0,0,0,.451-.4A6.08,6.08,0,0,1,3.5,6.167a.569.569,0,0,0-.042-.594L2.77,4.6a.519.519,0,0,1,.056-.669L3.884,2.876l0,0a.5.5,0,0,1,.364-.15.511.511,0,0,1,.3.1L5.5,3.5a.567.567,0,0,0,.6.04,6.029,6.029,0,0,1,1.012-.427.57.57,0,0,0,.391-.449l.2-1.179a.519.519,0,0,1,.514-.434h1.49a.519.519,0,0,1,.514.435l.194,1.149a.568.568,0,0,0,.4.451,6.138,6.138,0,0,1,1.056.435.569.569,0,0,0,.6-.041l.964-.687a.5.5,0,0,1,.3-.1.509.509,0,0,1,.367.154l1.057,1.057a.515.515,0,0,1,.055.667l-.685.959a.569.569,0,0,0-.041.6,6.207,6.207,0,0,1,.421,1.018.568.568,0,0,0,.449.392l1.163.2h0a.506.506,0,0,1,.427.506Zm0,0"/>
    <path id="패스_608" data-name="패스 608" class="cls-1" d="M159.953,156.453a3.5,3.5,0,1,0,3.5,3.5A3.5,3.5,0,0,0,159.953,156.453Zm0,5.945a2.445,2.445,0,1,1,2.445-2.445A2.448,2.448,0,0,1,159.953,162.4Zm0,0" transform="translate(-150.953 -150.953)"/>
  </g>
</svg>
