<svg id="download-symbol" xmlns="http://www.w3.org/2000/svg" width="34" height="34" viewBox="0 0 34 34">
  <defs>
    <style>
      .cls-1 {
        fill: #169;
      }
    </style>
  </defs>
  <g id="그룹_695" data-name="그룹 695" transform="translate(0 0)">
    <path id="패스_595" data-name="패스 595" class="cls-1" d="M31.721,8.467A16.929,16.929,0,0,0,25.534,2.28,16.629,16.629,0,0,0,17,0,16.629,16.629,0,0,0,8.467,2.28,16.924,16.924,0,0,0,2.28,8.467,16.629,16.629,0,0,0,0,17a16.632,16.632,0,0,0,2.28,8.533A16.929,16.929,0,0,0,8.467,31.72,16.631,16.631,0,0,0,17,34a16.631,16.631,0,0,0,8.533-2.28,16.924,16.924,0,0,0,6.187-6.187A16.632,16.632,0,0,0,34,17,16.633,16.633,0,0,0,31.721,8.467ZM27.426,23.043a12.009,12.009,0,0,1-4.383,4.383A11.77,11.77,0,0,1,17,29.041a11.771,11.771,0,0,1-6.043-1.615,12.009,12.009,0,0,1-4.383-4.383A11.768,11.768,0,0,1,4.959,17a11.77,11.77,0,0,1,1.616-6.043,12,12,0,0,1,4.383-4.383A11.769,11.769,0,0,1,17,4.958a11.77,11.77,0,0,1,6.043,1.616,12,12,0,0,1,4.383,4.383A11.769,11.769,0,0,1,29.042,17,11.769,11.769,0,0,1,27.426,23.043Z" transform="translate(0 0)"/>
    <path id="패스_596" data-name="패스 596" class="cls-1" d="M133.443,118.128h-4.25v-7.792a.682.682,0,0,0-.708-.708h-4.251a.682.682,0,0,0-.708.708v7.792h-4.25a.657.657,0,0,0-.664.443.674.674,0,0,0,.155.775l7.084,7.083a.751.751,0,0,0,1.018,0l7.061-7.061a.833.833,0,0,0,.221-.531.682.682,0,0,0-.708-.708Z" transform="translate(-109.359 -101.128)"/>
  </g>
</svg>
