<svg xmlns="http://www.w3.org/2000/svg" width="18" height="16.014" viewBox="0 0 18 16.014">
  <defs>
    <style>
      .cls-1 {
        fill: #1d1d1d;
      }
    </style>
  </defs>
  <path id="heart" class="cls-1" d="M9,16.014a1.056,1.056,0,0,1-.7-.261c-.727-.636-1.428-1.233-2.047-1.76l0,0A38.065,38.065,0,0,1,1.785,9.8,6.7,6.7,0,0,1,0,5.41,5.626,5.626,0,0,1,1.428,1.567,4.84,4.84,0,0,1,5.029,0,4.528,4.528,0,0,1,7.857.976,5.786,5.786,0,0,1,9,2.17,5.787,5.787,0,0,1,10.144.976,4.528,4.528,0,0,1,12.972,0a4.84,4.84,0,0,1,3.6,1.567A5.626,5.626,0,0,1,18,5.41a6.7,6.7,0,0,1-1.785,4.385,38.061,38.061,0,0,1-4.469,4.194c-.62.528-1.322,1.126-2.051,1.764a1.056,1.056,0,0,1-.7.261ZM5.028,1.054A3.8,3.8,0,0,0,2.2,2.282,4.576,4.576,0,0,0,1.054,5.41,5.637,5.637,0,0,0,2.6,9.122a37.459,37.459,0,0,0,4.341,4.065l0,0c.621.529,1.325,1.129,2.057,1.769.737-.642,1.442-1.243,2.064-1.773A37.468,37.468,0,0,0,15.4,9.122,5.638,5.638,0,0,0,16.946,5.41,4.576,4.576,0,0,0,15.8,2.282a3.8,3.8,0,0,0-2.825-1.227,3.5,3.5,0,0,0-2.183.756A5.117,5.117,0,0,0,9.572,3.218a.666.666,0,0,1-1.143,0A5.112,5.112,0,0,0,7.212,1.81a3.5,3.5,0,0,0-2.183-.756Zm0,0" transform="translate(0 0)"/>
</svg>
