<svg xmlns="http://www.w3.org/2000/svg" width="24" height="21.968" viewBox="0 0 24 21.968">
  <defs>
    <style>
      .cls-1 {
        fill: #2d2d2d;
      }
    </style>
  </defs>
  <g id="share" transform="translate(-3 -0.5)">
    <path id="패스_602" data-name="패스 602" class="cls-1" d="M196.977.675a.6.6,0,0,0-1.03.428V4.327A8.251,8.251,0,0,0,190.8,6.035a9.159,9.159,0,0,0-3.179,5.324,9.379,9.379,0,0,0-.108,3.068v0l0,.027.128.738a.6.6,0,0,0,1.113.207l.385-.641a8.487,8.487,0,0,1,4.378-3.872,6.345,6.345,0,0,1,2.424-.355v3.339a.6.6,0,0,0,1.032.426l6.385-6.417a.6.6,0,0,0,0-.854Zm.178,11.734V9.991a.6.6,0,0,0-.508-.6,7.391,7.391,0,0,0-3.524.355,9.23,9.23,0,0,0-4.48,3.568,8.606,8.606,0,0,1,.164-1.723,7.859,7.859,0,0,1,2.772-4.635c.013-.011.025-.022.037-.034.042-.039,1.577-1.424,4.93-1.4h0a.6.6,0,0,0,.6-.6V2.557l4.926,4.9Zm0,0" transform="translate(-176.54)"/>
    <path id="패스_603" data-name="패스 603" class="cls-1" d="M24.786,71.23a.6.6,0,0,0-.6.6v2.553A1.814,1.814,0,0,1,22.369,76.2H6.021a1.814,1.814,0,0,1-1.812-1.812V61.993a1.814,1.814,0,0,1,1.812-1.812H10.2a.6.6,0,0,0,0-1.208H6.021A3.024,3.024,0,0,0,3,61.993V74.387a3.024,3.024,0,0,0,3.021,3.021H22.369a3.024,3.024,0,0,0,3.021-3.021V71.834A.6.6,0,0,0,24.786,71.23Zm0,0" transform="translate(0 -54.94)"/>
  </g>
</svg>
