<svg xmlns="http://www.w3.org/2000/svg" width="34" height="34" viewBox="0 0 34 34">
  <defs>
    <style>
      .cls-1 {
        fill: #e84849;
      }

      .cls-2 {
        fill: #edc92c;
      }
    </style>
  </defs>
  <g id="warning" transform="translate(0)">
    <circle id="타원_129" data-name="타원 129" class="cls-1" cx="17" cy="17" r="17" transform="translate(0 0)"/>
    <path id="패스_539" data-name="패스 539" class="cls-2" d="M89.173,86.092l-11.664-18.8a.745.745,0,0,0-1.266,0l-11.7,18.851a.745.745,0,0,0,.633,1.138h23.4a.745.745,0,0,0,.6-1.189Z" transform="translate(-59.812 -62.138)"/>
    <path id="패스_540" data-name="패스 540" d="M221.814,158.435l-.242-3.618q-.068-1.058-.068-1.519a1.377,1.377,0,0,1,.328-.978,1.128,1.128,0,0,1,.865-.352.87.87,0,0,1,.869.449,3.047,3.047,0,0,1,.219,1.3,9.981,9.981,0,0,1-.053,1.012l-.325,3.725a2.912,2.912,0,0,1-.227,1.02.594.594,0,0,1-.574.355.57.57,0,0,1-.566-.344A3.4,3.4,0,0,1,221.814,158.435Zm.839,4.971a1.188,1.188,0,0,1-.8-.3,1.046,1.046,0,0,1-.344-.835,1.121,1.121,0,0,1,1.133-1.126,1.118,1.118,0,0,1,.812.329,1.074,1.074,0,0,1,.336.8,1.053,1.053,0,0,1-.34.831A1.158,1.158,0,0,1,222.653,163.406Z" transform="translate(-205.614 -141.066)"/>
  </g>
</svg>
