<svg xmlns="http://www.w3.org/2000/svg" width="22" height="16.226" viewBox="0 0 22 16.226">
  <defs>
    <style>
      .cls-1 {
        fill: #01b5cd;
      }
    </style>
  </defs>
  <g id="open-folder-outline" transform="translate(0 -71.516)">
    <path id="패스_579" data-name="패스 579" class="cls-1" d="M21.827,79.986a1.775,1.775,0,0,0-.772-.812,2.346,2.346,0,0,0-1.141-.282H17.7V77.048a2.6,2.6,0,0,0-2.582-2.581H8.851V74.1a2.484,2.484,0,0,0-.761-1.821,2.485,2.485,0,0,0-1.821-.761H2.581a2.484,2.484,0,0,0-1.821.761A2.484,2.484,0,0,0,0,74.1V85.161a2.484,2.484,0,0,0,.761,1.821,2.484,2.484,0,0,0,1.821.761H15.12a3.774,3.774,0,0,0,1.613-.4,3.743,3.743,0,0,0,1.337-1.008l3.4-4.183A2.2,2.2,0,0,0,22,80.77,1.821,1.821,0,0,0,21.827,79.986ZM1.475,74.1a1.1,1.1,0,0,1,1.106-1.106H6.269A1.1,1.1,0,0,1,7.376,74.1v.738a1.1,1.1,0,0,0,1.106,1.106H15.12a1.1,1.1,0,0,1,1.106,1.106v1.844H7.376a3.722,3.722,0,0,0-1.614.4A3.884,3.884,0,0,0,4.425,80.3l-2.95,3.63V74.1ZM20.318,81.22,16.929,85.4a2.634,2.634,0,0,1-1.809.864H2.581q-.611,0-.611-.4a.842.842,0,0,1,.207-.461l3.388-4.183a2.38,2.38,0,0,1,.824-.605,2.315,2.315,0,0,1,.985-.248H19.914q.611,0,.611.4A.751.751,0,0,1,20.318,81.22Z" transform="translate(0 0)"/>
  </g>
</svg>
