<svg xmlns="http://www.w3.org/2000/svg" width="18" height="16.56" viewBox="0 0 18 16.56">
  <defs>
    <style>
      .cls-1 {
        fill: #1d1d1d;
      }
    </style>
  </defs>
  <g id="comment_1_" data-name="comment (1)" transform="translate(-0.001 1.332)">
    <path id="패스_563" data-name="패스 563" class="cls-1" d="M15.526-1.332H2.475A2.477,2.477,0,0,0,0,1.143V9.129A2.478,2.478,0,0,0,2.467,11.6v3.624L7.675,11.6h7.851A2.478,2.478,0,0,0,18,9.129V1.143a2.477,2.477,0,0,0-2.475-2.475Zm1.42,10.461a1.422,1.422,0,0,1-1.42,1.42H7.344L3.521,13.21v-2.66H2.475a1.422,1.422,0,0,1-1.42-1.42V1.143a1.422,1.422,0,0,1,1.42-1.42H15.526a1.422,1.422,0,0,1,1.42,1.42Zm0,0" transform="translate(0)"/>
    <path id="패스_564" data-name="패스 564" class="cls-1" d="M171.293,131.172h8.365v1.055h-8.365Zm0,0" transform="translate(-166.475 -128.777)"/>
    <path id="패스_565" data-name="패스 565" class="cls-1" d="M171.293,211.172h8.365v1.055h-8.365Zm0,0" transform="translate(-166.475 -206.527)"/>
    <path id="패스_566" data-name="패스 566" class="cls-1" d="M171.293,291.172h8.365v1.055h-8.365Zm0,0" transform="translate(-166.475 -284.277)"/>
  </g>
</svg>
