<svg xmlns="http://www.w3.org/2000/svg" width="18.417" height="20.364" viewBox="0 0 18.417 20.364">
  <defs>
    <style>
      .cls-1 {
        fill: #3c1e1e;
      }
    </style>
  </defs>
  <g id="lightbulb-idea" transform="translate(0 0)">
    <g id="Layer_1_31_" transform="translate(0 0)">
      <g id="그룹_694" data-name="그룹 694">
        <path id="패스_583" data-name="패스 583" class="cls-1" d="M15.4,7.231A6.1,6.1,0,0,0,9.205,13.22a7.128,7.128,0,0,0,1.51,4.357,2.567,2.567,0,0,1,.617,1.268A2.59,2.59,0,0,0,12.488,20.9c.019.461.087,1.585.087,1.585h0c.012.319.18.974,1.281,1.34a1.853,1.853,0,0,0,.506.5.783.783,0,0,0,.438.134H16a.774.774,0,0,0,.438-.134,1.841,1.841,0,0,0,.506-.5c1.11-.37,1.272-1.032,1.281-1.342,0,0,.068-1.123.086-1.584a2.592,2.592,0,0,0,1.157-2.058,2.572,2.572,0,0,1,.62-1.273,7.119,7.119,0,0,0,1.507-4.353A6.1,6.1,0,0,0,15.4,7.231Zm3.39,9.464a3.776,3.776,0,0,0-.889,2.15,1.163,1.163,0,0,1-.587.844H13.485a1.162,1.162,0,0,1-.587-.844A3.792,3.792,0,0,0,12,16.687a5.61,5.61,0,0,1-1.233-3.467A4.535,4.535,0,0,1,15.4,8.8a4.534,4.534,0,0,1,4.628,4.422A5.617,5.617,0,0,1,18.789,16.7Z" transform="translate(-6.19 -4.098)"/>
        <path id="패스_584" data-name="패스 584" class="cls-1" d="M22.989,1.958a.391.391,0,0,0,.391-.392V.392a.391.391,0,1,0-.783,0V1.566A.392.392,0,0,0,22.989,1.958Z" transform="translate(-13.78 0)"/>
        <path id="패스_585" data-name="패스 585" class="cls-1" d="M13.061,4.331a.392.392,0,0,0,.678-.392l-.588-1.017a.392.392,0,0,0-.678.392Z" transform="translate(-8.013 -1.545)"/>
        <path id="패스_586" data-name="패스 586" class="cls-1" d="M6.578,10.815l-1.017-.587a.392.392,0,0,0-.392.678l1.017.587a.392.392,0,1,0,.392-.678Z" transform="translate(-3.792 -5.767)"/>
        <path id="패스_587" data-name="패스 587" class="cls-1" d="M4.2,20.743a.392.392,0,0,0-.392-.392H2.638a.392.392,0,0,0,0,.783H3.812A.392.392,0,0,0,4.2,20.743Z" transform="translate(-2.246 -11.534)"/>
        <path id="패스_588" data-name="패스 588" class="cls-1" d="M6.185,29.223l-1.018.587a.391.391,0,1,0,.391.678L6.576,29.9a.391.391,0,1,0-.391-.678Z" transform="translate(-3.791 -16.532)"/>
        <path id="패스_589" data-name="패스 589" class="cls-1" d="M39.478,29.81l-1.017-.588a.392.392,0,0,0-.392.678l1.017.587a.388.388,0,0,0,.2.052.391.391,0,0,0,.2-.73Z" transform="translate(-22.437 -16.532)"/>
        <path id="패스_590" data-name="패스 590" class="cls-1" d="M41.8,20.351H40.631a.391.391,0,0,0,0,.783H41.8a.391.391,0,0,0,0-.783Z" transform="translate(-23.778 -11.534)"/>
        <path id="패스_591" data-name="패스 591" class="cls-1" d="M38.265,11.546a.388.388,0,0,0,.2-.052l1.018-.587a.391.391,0,1,0-.391-.678l-1.017.587a.391.391,0,0,0,.2.73Z" transform="translate(-22.437 -5.767)"/>
        <path id="패스_592" data-name="패스 592" class="cls-1" d="M31.613,4.474a.385.385,0,0,0,.2.053.391.391,0,0,0,.339-.2l.587-1.017a.391.391,0,1,0-.678-.391L31.47,3.94A.392.392,0,0,0,31.613,4.474Z" transform="translate(-18.779 -1.545)"/>
        <path id="패스_593" data-name="패스 593" class="cls-1" d="M21.742,19.313c.047.347.215.442.525.442s.478-.1.526-.442l.37-2.793a4.724,4.724,0,0,0,.047-.561V14.574a.943.943,0,0,0-1.886,0v1.385a4.642,4.642,0,0,0,.048.561Z" transform="translate(-13.058 -7.739)"/>
        <path id="패스_594" data-name="패스 594" class="cls-1" d="M22.22,29.523a.979.979,0,1,0,.979.979A.983.983,0,0,0,22.22,29.523Z" transform="translate(-13.011 -16.732)"/>
      </g>
    </g>
  </g>
</svg>
