<svg xmlns="http://www.w3.org/2000/svg" width="20" height="18.448" viewBox="0 0 20 18.448">
  <defs>
    <style>
      .cls-1 {
        fill: #1d1d1d;
      }
    </style>
  </defs>
  <g id="icon" transform="translate(0 -1.178)">
    <path id="패스_581" data-name="패스 581" class="cls-1" d="M14.873,8.635s.809-.615.193-1.23-1.214.179-1.214.179L7.662,13.774s-1.45,1.871-2.552.74.739-2.552.739-2.552l8.115-8.115s1.894-2.086,3.674-.307-.314,3.678-.314,3.678L8.206,16.336s-2.918,3.37-5.618.669.7-5.586.7-5.586l6.923-6.925s.775-.647.194-1.23-1.229.194-1.229.194L1.235,11.4a4.7,4.7,0,0,0,.35,6.637,4.7,4.7,0,0,0,6.639.351L19.142,7.471a3.533,3.533,0,0,0-.42-5.015,3.532,3.532,0,0,0-5.014-.421L4.313,11.428s-2.406,1.957-.223,4.139,4.1-.257,4.1-.257Z" transform="translate(0 0)"/>
  </g>
</svg>
