<svg xmlns="http://www.w3.org/2000/svg" width="20.995" height="22" viewBox="0 0 20.995 22">
  <defs>
    <style>
      .cls-1 {
        fill: #c3c3c3;
      }
    </style>
  </defs>
  <path id="diary" class="cls-1" d="M28.709,9.4H12.949a1.558,1.558,0,0,0-1.587,1.587v1.269H10.093a.793.793,0,0,0,0,1.587h1.269v2.089H10.093a.793.793,0,0,0,0,1.587h1.269v2.089H10.093a.793.793,0,0,0,0,1.587h1.269v2.089H10.093a.793.793,0,1,0,0,1.587h1.269v2.089H10.093a.793.793,0,0,0,0,1.587h1.269v1.269A1.558,1.558,0,0,0,12.949,31.4h15.76A1.558,1.558,0,0,0,30.3,29.813V10.987A1.558,1.558,0,0,0,28.709,9.4ZM12.949,27.751h0V11.013h2.406V29.84H12.949Zm15.76,2.062v0Z" transform="translate(-9.3 -9.4)"/>
</svg>
