<svg xmlns="http://www.w3.org/2000/svg" width="19.059" height="14" viewBox="0 0 19.059 14">
    <defs>
        <style>
            .cls-1{fill:#8f949a}
        </style>
    </defs>
    <g id="team" transform="translate(0 -68.066)">
        <g id="그룹_557" transform="translate(14.629 74.04)">
            <g id="그룹_556">
                <path id="패스_506" d="M2.2.328A5.445 5.445 0 0 0 .279 0a.28.28 0 1 0 0 .559 4.827 4.827 0 0 1 1.667.269.28.28 0 1 0 .25-.5z" class="cls-1"/>
            </g>
        </g>
        <g id="그룹_559" transform="translate(0 68.066)">
            <g id="그룹_558">
                <path id="패스_507" d="M18.218 10.279l-1.154-.33a.119.119 0 0 1-.085-.112v-.385a2.09 2.09 0 0 0 .268-.22 2.057 2.057 0 0 0 .629-1.486v-.531l.111-.223a1.779 1.779 0 0 0 .188-.793v-1.44a.279.279 0 0 0-.275-.279h-2.692a1.775 1.775 0 0 0-1.773 1.773v.017a1.5 1.5 0 0 0 .156.664l.143.286v.456a2.182 2.182 0 0 0 .9 1.762v.4c0 .063 0 .088-.231.154l-.563.16-1.628-.592a.276.276 0 0 0-.076-.213l-.52-.547v-.918a3.53 3.53 0 0 0 .161-.141 3.28 3.28 0 0 0 1.033-2.383v-.734a3.232 3.232 0 0 0 .3-1.358V.279A.279.279 0 0 0 12.831 0H8.643a2.672 2.672 0 0 0-2.669 2.669v.6a3.232 3.232 0 0 0 .3 1.358v.631a3.411 3.411 0 0 0 1.195 2.605V8.8l-.52.548a.274.274 0 0 0-.076.213l-1.72.625a1.443 1.443 0 0 0-.345.182l-.27-.135a2.135 2.135 0 0 0 1.069-.866.275.275 0 0 0 0-.25 4.956 4.956 0 0 1-.245-1.734c-.005-.2-.011-.385-.023-.551A2.43 2.43 0 0 0 2.97 4.484 2.43 2.43 0 0 0 .6 6.834c-.012.166-.018.353-.025.55A4.95 4.95 0 0 1 .33 9.118a.275.275 0 0 0 0 .25 2.13 2.13 0 0 0 1.069.866l-.75.375A1.17 1.17 0 0 0 0 11.657v2.063a.28.28 0 1 0 .559 0v-2.062a.614.614 0 0 1 .341-.552l.935-.467.325.309a1.174 1.174 0 0 0 1.618 0l.322-.313.3.151a1.472 1.472 0 0 0-.225.78v2.149a.279.279 0 1 0 .558 0v-2.149a.916.916 0 0 1 .6-.86l1.812-.659.755 1.133a.575.575 0 0 0 .425.254h.058a.581.581 0 0 0 .408-.168l.46-.461v2.91a.279.279 0 1 0 .558 0V10.8l.46.461a.581.581 0 0 0 .408.168h.058a.577.577 0 0 0 .425-.254l.754-1.133 1.812.659a.92.92 0 0 1 .6.86v2.149a.279.279 0 1 0 .558 0v-2.144a1.475 1.475 0 0 0-.413-1.022l.069-.021a1.525 1.525 0 0 0 .26-.094l.713.713v2.573a.279.279 0 1 0 .558 0v-2.567l.708-.709a.64.64 0 0 0 .119.047l1.154.33a.619.619 0 0 1 .447.594v2.311a.28.28 0 0 0 .559 0V11.41a1.182 1.182 0 0 0-.84-1.131zM1.792 9.786a2 2 0 0 1-.9-.576 3.061 3.061 0 0 0 .159-.669 2.076 2.076 0 0 0 .737.91zm1.6.756a.614.614 0 0 1-.85 0l-.26-.247a.589.589 0 0 0 .067-.273v-.3a2.09 2.09 0 0 0 1.233 0v.3a.574.574 0 0 0 .067.273zM2.967 9.26a1.514 1.514 0 0 1-1.513-1.513.279.279 0 0 0-.277-.279.259.259 0 0 0-.048 0V7.4c.006-.192.012-.374.022-.529a2.075 2.075 0 0 1 .565-1.3 1.736 1.736 0 0 1 2.455-.04l.04.04a2.071 2.071 0 0 1 .564 1.3c.013.156.019.337.025.529v.05a2.509 2.509 0 0 0-1.38-1.008 3.52 3.52 0 0 0-1.063-.168.282.282 0 0 0-.193.085l-.5.523a.279.279 0 0 0 .4.388l.419-.435a2.262 2.262 0 0 1 1.975 1.147A1.512 1.512 0 0 1 2.967 9.26zm1.175.527v-.333a2.058 2.058 0 0 0 .738-.911 3.058 3.058 0 0 0 .159.667 2.023 2.023 0 0 1-.9.577zM6.83 5.255v-.693a.282.282 0 0 0-.03-.121 2.67 2.67 0 0 1-.271-1.174v-.6A2.114 2.114 0 0 1 8.641.557h3.9v2.708a2.683 2.683 0 0 1-.271 1.174.268.268 0 0 0-.027.121v.8a2.684 2.684 0 0 1-.853 1.974c-.068.064-.14.125-.214.182a2.68 2.68 0 0 1-1.813.541 2.768 2.768 0 0 1-2.533-2.8zm1.57 5.621a.017.017 0 0 1-.016.006.019.019 0 0 1-.014-.009L7.5 9.572l.279-.293 1.318.9zM9.535 9.8l-1.51-1.036v-.521a3.144 3.144 0 0 0 1.3.374c.074 0 .147.007.22.007a3.244 3.244 0 0 0 1.51-.37v.51zm1.165 1.073a.021.021 0 0 1-.015.009.017.017 0 0 1-.016-.006l-.7-.7 1.318-.9.279.3zm5.1-.236L15.166 10a.709.709 0 0 0 .017-.166v-.115a1.9 1.9 0 0 0 .553.1h.064a2.076 2.076 0 0 0 .616-.092v.107a.693.693 0 0 0 .02.163zm1.053-1.8a1.506 1.506 0 0 1-1.1.427 1.565 1.565 0 0 1-1.466-1.588v-.522a.286.286 0 0 0-.029-.125l-.173-.345a.939.939 0 0 1-.1-.409v-.017A1.215 1.215 0 0 1 15.2 5.044h2.408V6.2a1.218 1.218 0 0 1-.128.543l-.141.282a.273.273 0 0 0-.029.125v.6a1.5 1.5 0 0 1-.452 1.08z" class="cls-1"/>
            </g>
        </g>
        <g id="그룹_561" transform="translate(17.317 79.715)">
            <g id="그룹_560">
                <path id="패스_508" d="M.277 0A.279.279 0 0 0 0 .278v1.793a.28.28 0 0 0 .559 0V.279A.28.28 0 0 0 .277 0z" class="cls-1"/>
            </g>
        </g>
        <g id="그룹_563" transform="translate(1.195 80.084)">
            <g id="그룹_562">
                <path id="패스_509" d="M.279 0A.279.279 0 0 0 0 .279V1.7a.28.28 0 0 0 .559 0V.279A.279.279 0 0 0 .279 0z" class="cls-1"/>
            </g>
        </g>
        <g id="그룹_565" transform="translate(7.169 70.604)">
            <g id="그룹_564">
                <path id="패스_510" d="M4.659.829C3.6-.228 1.392-.026.49.11A.573.573 0 0 0 0 .681v.644a.279.279 0 1 0 .558 0V.681A.019.019 0 0 1 .574.662 8.809 8.809 0 0 1 2.388.573a2.885 2.885 0 0 1 1.875.65.283.283 0 1 0 .4-.4z" class="cls-1"/>
            </g>
        </g>
        <g id="그룹_567" transform="translate(5.974 80.312)">
            <g id="그룹_566">
                <path id="패스_511" d="M.279 0A.279.279 0 0 0 0 .279v1.2a.28.28 0 0 0 .559 0v-1.2A.279.279 0 0 0 .279 0z" class="cls-1"/>
            </g>
        </g>
        <g id="그룹_569" transform="translate(12.545 80.312)">
            <g id="그룹_568">
                <path id="패스_512" d="M.279 0A.279.279 0 0 0 0 .279v1.2a.279.279 0 1 0 .558 0v-1.2A.278.278 0 0 0 .279 0z" class="cls-1"/>
            </g>
        </g>
    </g>
</svg>
