<svg xmlns="http://www.w3.org/2000/svg" width="19.087" height="20" viewBox="0 0 19.087 20">
  <defs>
    <style>
      .cls-1 {
        fill: #01b5cd;
      }
    </style>
  </defs>
  <path id="diary" class="cls-1" d="M26.944,9.4H12.617a1.417,1.417,0,0,0-1.442,1.442V12H10.021a.721.721,0,0,0,0,1.442h1.154v1.9H10.021a.721.721,0,0,0,0,1.442h1.154v1.9H10.021a.721.721,0,1,0,0,1.442h1.154v1.9H10.021a.721.721,0,1,0,0,1.442h1.154v1.9H10.021a.721.721,0,1,0,0,1.442h1.154v1.154A1.417,1.417,0,0,0,12.617,29.4H26.944a1.417,1.417,0,0,0,1.442-1.442V10.842A1.417,1.417,0,0,0,26.944,9.4ZM12.617,26.083h0V10.866H14.8V27.982H12.617Zm14.327,1.875h-10.7V10.842h10.7Z" transform="translate(-9.3 -9.4)"/>
</svg>
