<svg xmlns="http://www.w3.org/2000/svg" width="21.469" height="24" viewBox="0 0 21.469 24">
  <defs>
    <style>
      .cls-1 {
        fill: #01b5cd;
      }
    </style>
  </defs>
  <g id="volunteer" transform="translate(0 0)">
    <path id="패스_568" data-name="패스 568" class="cls-1" d="M21.47,3.462A1.469,1.469,0,0,0,19.437,2.1a1.469,1.469,0,0,0-2.022-1.036,1.47,1.47,0,0,0-2.827,0,1.469,1.469,0,0,0-2.055,1.348V6.1a1.491,1.491,0,0,0-2.318.177c-.025.036-.047.073-.068.11a1.407,1.407,0,0,0-1.176-.072,1.409,1.409,0,0,0-1.9-.975,1.411,1.411,0,0,0-2.7,0A1.41,1.41,0,0,0,2.427,6.645v3.4a1.431,1.431,0,0,0-2.4,1.3l.493,2.5a5.066,5.066,0,0,0,1.4,2.617l.881.878v1.5H2.3a.469.469,0,0,0-.469.469v4.219a.469.469,0,0,0,.937,0V19.781H8.891v3.751a.469.469,0,0,0,.938,0V19.312a.469.469,0,0,0-.469-.469H8.876v-1.5l.521-.519a5.051,5.051,0,0,0,1.494-3.6V11.261a5.362,5.362,0,0,0,1.093,1.572l.945.942v1.834h-.557a.469.469,0,0,0-.469.469v7.453a.469.469,0,1,0,.938,0V18.422h2.268a.469.469,0,1,0,0-.937H12.841v-.937H19.4v6.984a.469.469,0,1,0,.937,0V16.078a.469.469,0,0,0-.469-.469h-.544V13.775l.562-.56a5.34,5.34,0,0,0,1.58-3.806V8.922a.469.469,0,0,0-.937,0v.487a4.408,4.408,0,0,1-1.3,3.142l-.7.7a.469.469,0,0,0-.138.332v2.029H13.866V13.581a.468.468,0,0,0-.138-.332l-1.083-1.079a4.422,4.422,0,0,1-1.22-2.284L10.9,7.227a.555.555,0,0,1,1.083-.239l.271,1.105a.616.616,0,0,0,1.215-.147V2.416a.532.532,0,0,1,1.061-.059V5.438a.457.457,0,0,0,0,.055v.3a.469.469,0,0,0,.938,0V2.416c0-.032,0-.065,0-.1V1.47a.532.532,0,1,1,1.065,0v.849c0,.032,0,.064,0,.1V5.438a.5.5,0,0,0,0,.055v.3a.469.469,0,0,0,.938,0V2.356a.532.532,0,0,1,1.061.059v.95c0,.032,0,.064,0,.1V5.438a.5.5,0,0,0,0,.055v.3a.469.469,0,1,0,.938,0V3.4a.532.532,0,0,1,1.062.06v1.71a.469.469,0,0,0,.938,0V3.462ZM9.953,13.224a4.12,4.12,0,0,1-1.219,2.937l-.658.656a.468.468,0,0,0-.138.332v1.694h-4.2V17.149a.468.468,0,0,0-.138-.332L2.581,15.8a4.132,4.132,0,0,1-1.141-2.134l-.493-2.5a.494.494,0,0,1,.4-.582.5.5,0,0,1,.566.369l.255,1.04a.608.608,0,0,0,1.2-.145v-5.2a.473.473,0,0,1,.943-.054v2.9a.469.469,0,0,0,0,.054v.282a.469.469,0,1,0,.938,0V6.645c0-.031,0-.061,0-.092v-.8a.473.473,0,0,1,.947,0v.8c0,.031,0,.061,0,.092V9.488a.478.478,0,0,0,0,.054v.281a.469.469,0,0,0,.938,0V6.59a.473.473,0,0,1,.943.054v.892c0,.03,0,.061,0,.092V9.488a.478.478,0,0,0,0,.054v.281a.469.469,0,0,0,.938,0V7.575a.473.473,0,0,1,.943.054Zm0,0"/>
    <path id="패스_569" data-name="패스 569" class="cls-1" d="M438.481,140.328a.469.469,0,1,0,.331.138A.472.472,0,0,0,438.481,140.328Zm0,0" transform="translate(-417.48 -133.75)"/>
    <path id="패스_570" data-name="패스 570" class="cls-1" d="M352.8,373a.469.469,0,1,0,.332.137A.473.473,0,0,0,352.8,373Zm0,0" transform="translate(-335.812 -355.516)"/>
  </g>
</svg>
