<svg xmlns="http://www.w3.org/2000/svg" width="74.731" height="78" viewBox="0 0 74.731 78">
    <defs>
        <style>
            .cls-1{fill:#01b5cd}
        </style>
    </defs>
    <g id="그룹_632" data-name="그룹 632">
        <path id="패스_548" d="M9.306 64.044V8.539H53v46.615l8.321-7.054V4.27A4.216 4.216 0 0 0 57.161 0H5.145a4.216 4.216 0 0 0-4.16 4.27v64.042a4.216 4.216 0 0 0 4.16 4.27h36.311l-5.882-8.538z" data-name="패스 548" transform="translate(-.985)"/>
        <path id="패스_549" d="M60.051 27.826a2.081 2.081 0 0 0-2.752-.092L38.214 43.507 25.5 35.877a2.08 2.08 0 0 0-2.769 2.985l13.778 19.505a2.084 2.084 0 0 0 1.68.88h.019a2.073 2.073 0 0 0 1.677-.851L60.3 30.568a2.085 2.085 0 0 0-.249-2.742z" class="cls-1" data-name="패스 549" transform="translate(14.03 18.753)"/>
        <path id="패스_550" d="M38.459 8.988H13.49a4.162 4.162 0 1 0 0 8.323h24.968a4.161 4.161 0 0 0 0-8.323z" data-name="패스 550" transform="translate(4.794 5.972)"/>
        <path id="패스_551" d="M38.459 16.691H13.49a4.161 4.161 0 1 0 0 8.323h24.968a4.161 4.161 0 0 0 0-8.323z" data-name="패스 551" transform="translate(4.794 11.09)"/>
        <path id="패스_552" d="M38.459 24.4H13.49a4.161 4.161 0 1 0 0 8.323h24.968a4.162 4.162 0 0 0 0-8.323z" data-name="패스 552" transform="translate(4.794 16.208)"/>
    </g>
</svg>
