<svg xmlns="http://www.w3.org/2000/svg" width="20" height="20" viewBox="0 0 20 20">
  <defs>
    <style>
      .cls-1 {
        fill: #1d1d1d;
      }
    </style>
  </defs>
  <g id="image" transform="translate(-0.001 0.813)">
    <path id="패스_556" data-name="패스 556" class="cls-1" d="M182.748,100.312a2,2,0,1,0-2-2A2,2,0,0,0,182.748,100.312Zm0-2.824a.826.826,0,1,1-.826.826A.827.827,0,0,1,182.748,97.488Zm0,0" transform="translate(-173.688 -92.073)"/>
    <path id="패스_557" data-name="패스 557" class="cls-1" d="M19.27-.814H.731A.731.731,0,0,0,0-.083V18.456a.731.731,0,0,0,.73.73H19.27a.731.731,0,0,0,.73-.73V-.083a.731.731,0,0,0-.73-.73ZM18.829.358V12.479L15.143,8.793a.617.617,0,0,0-.871,0L9.059,14.006,5.73,10.677a.616.616,0,0,0-.872,0L1.173,14.362v-14ZM1.173,18.015v-2L5.294,11.9l3.329,3.329a.616.616,0,0,0,.872,0l5.213-5.213,4.121,4.121v3.878Zm0,0"/>
  </g>
</svg>
