<svg xmlns="http://www.w3.org/2000/svg" width="22" height="16.486" viewBox="0 0 22 16.486">
  <defs>
    <style>
      .cls-1 {
        fill: #c3c3c3;
      }
    </style>
  </defs>
  <g id="open-folder" transform="translate(0 -67.229)">
    <g id="그룹_677" data-name="그룹 677" transform="translate(0 67.229)">
      <path id="패스_560" data-name="패스 560" class="cls-1" d="M5.936,75.279a5.509,5.509,0,0,1,2.306-.556h9.742V72.849a2.639,2.639,0,0,0-2.623-2.623H8.992v-.375A2.523,2.523,0,0,0,8.219,68a2.524,2.524,0,0,0-1.85-.773H2.623A2.524,2.524,0,0,0,.773,68,2.523,2.523,0,0,0,0,69.852v11.24q0,.047.006.147c0,.066.006.115.006.146l.058-.07,3.946-4.637A5.462,5.462,0,0,1,5.936,75.279Z" transform="translate(0 -67.229)"/>
      <path id="패스_561" data-name="패스 561" class="cls-1" d="M41.678,286.647a1.585,1.585,0,0,0-.708-.153H28.231a4.063,4.063,0,0,0-1.68.416,3.97,3.97,0,0,0-1.411,1.013l-3.934,4.637a1.2,1.2,0,0,0-.363.773.52.52,0,0,0,.31.5,1.586,1.586,0,0,0,.708.152H34.6a4.065,4.065,0,0,0,1.68-.416,3.967,3.967,0,0,0,1.411-1.013l3.934-4.637a1.2,1.2,0,0,0,.363-.773A.52.52,0,0,0,41.678,286.647Z" transform="translate(-19.988 -277.502)"/>
    </g>
  </g>
</svg>
